<?xml version="1.0" encoding="utf-8"?>
<!-- Generator: Adobe Illustrator 22.1.0, SVG Export Plug-In . SVG Version: 6.00 Build 0)  -->
<svg version="1.1" id="Regular" xmlns="http://www.w3.org/2000/svg" xmlns:xlink="http://www.w3.org/1999/xlink" x="0px" y="0px"
	 viewBox="0 0 24 24" style="enable-background:new 0 0 24 24;" xml:space="preserve">
<style type="text/css">
	.st0{fill:#FFFFFF;}
</style>
<title>weather-sun</title>
<g>
	<path class="st0" d="M12,19.5c-4.1,0-7.5-3.4-7.5-7.5S7.9,4.5,12,4.5s7.5,3.4,7.5,7.5S16.1,19.5,12,19.5z M12,6c-3.3,0-6,2.7-6,6
		s2.7,6,6,6s6-2.7,6-6S15.3,6,12,6z"/>
	<path class="st0" d="M12,3c-0.4,0-0.8-0.3-0.8-0.8V0.8C11.2,0.3,11.6,0,12,0s0.8,0.3,0.8,0.8v1.5C12.8,2.7,12.4,3,12,3z"/>
	<path class="st0" d="M18.9,5.9c-0.2,0-0.4-0.1-0.5-0.2c-0.1-0.1-0.2-0.3-0.2-0.5c0-0.2,0.1-0.4,0.2-0.5l1.1-1.1
		c0.1-0.1,0.3-0.2,0.5-0.2s0.4,0.1,0.5,0.2c0.1,0.1,0.2,0.3,0.2,0.5c0,0.2-0.1,0.4-0.2,0.5l-1.1,1.1C19.3,5.8,19.1,5.9,18.9,5.9z"/>
	<path class="st0" d="M21.8,12.8c-0.4,0-0.8-0.3-0.8-0.8s0.3-0.8,0.8-0.8h1.5c0.4,0,0.8,0.3,0.8,0.8s-0.3,0.8-0.8,0.8H21.8z"/>
	<path class="st0" d="M20,20.7c-0.2,0-0.4-0.1-0.5-0.2l-1.1-1.1c-0.3-0.3-0.3-0.8,0-1.1c0.1-0.1,0.3-0.2,0.5-0.2s0.4,0.1,0.5,0.2
		l1.1,1.1c0.3,0.3,0.3,0.8,0,1.1C20.3,20.6,20.2,20.7,20,20.7z"/>
	<path class="st0" d="M12,24c-0.4,0-0.8-0.3-0.8-0.8v-1.5c0-0.4,0.3-0.8,0.8-0.8s0.8,0.3,0.8,0.8v1.5C12.8,23.7,12.4,24,12,24z"/>
	<path class="st0" d="M4,20.7c-0.2,0-0.4-0.1-0.5-0.2c-0.1-0.1-0.2-0.3-0.2-0.5s0.1-0.4,0.2-0.5l1.1-1.1c0.1-0.1,0.3-0.2,0.5-0.2
		s0.4,0.1,0.5,0.2c0.3,0.3,0.3,0.8,0,1.1l-1.1,1.1C4.4,20.6,4.2,20.7,4,20.7z"/>
	<path class="st0" d="M0.8,12.8C0.3,12.8,0,12.4,0,12s0.3-0.8,0.8-0.8h1.5C2.7,11.3,3,11.6,3,12s-0.3,0.8-0.8,0.8H0.8z"/>
	<path class="st0" d="M5.1,5.9c-0.2,0-0.4-0.1-0.5-0.2L3.5,4.6C3.4,4.4,3.3,4.2,3.3,4c0-0.2,0.1-0.4,0.2-0.5C3.7,3.4,3.8,3.3,4,3.3
		c0.2,0,0.4,0.1,0.5,0.2l1.1,1.1c0.1,0.1,0.2,0.3,0.2,0.5S5.8,5.5,5.6,5.6C5.5,5.8,5.3,5.9,5.1,5.9z"/>
</g>
</svg>
